# Blender v2.93.4 OBJ File: 'sword.blend'
# www.blender.org
mtllib sword.mtl
o Cube_Cube.001
v -0.136009 -0.134868 3.332526
v -0.136009 0.134868 3.332526
v 0.136009 -0.134868 3.332526
v 0.136009 0.134868 3.332526
v 0.000000 -0.028178 -4.450858
v 0.000000 0.028178 -4.450858
v 0.000000 -0.134868 3.332526
v 0.000000 0.134868 3.332526
v -0.136009 -0.134868 1.738890
v -0.136009 0.134868 1.738890
v 0.136009 -0.134868 1.738890
v 0.136009 0.134868 1.738890
v 0.000000 0.134868 1.738890
v 0.000000 -0.134868 1.738890
v 0.000000 0.134868 1.405948
v 0.000000 -0.134868 1.405948
v -1.091832 -0.134868 1.738041
v -1.262830 -0.134868 2.023717
v 1.091832 0.134868 1.738041
v 1.262830 0.134868 2.023717
v 1.262830 -0.134868 2.023717
v -1.262830 0.134868 2.023717
v -1.091832 0.134868 1.738041
v 1.091832 -0.134868 1.738041
v -0.136009 -0.134868 3.100589
v 0.136009 0.134868 3.100589
v 0.000000 0.134868 3.100589
v 0.000000 -0.134868 3.100589
v -0.136009 0.134868 3.100589
v 0.136009 -0.134868 3.100589
v -0.255646 -0.134868 3.100589
v -0.255646 -0.134868 3.332526
v -0.255646 0.134868 3.332526
v 0.255646 0.134868 3.100589
v 0.255646 0.134868 3.332526
v 0.255646 -0.134868 3.332526
v -0.255646 0.134868 3.100589
v 0.255646 -0.134868 3.100589
v -0.020523 -0.028178 -4.328546
v -0.187643 -0.045451 -3.332526
v -0.187643 0.045451 -3.332526
v -0.020523 0.028178 -4.328546
v 0.187643 -0.045451 -3.332526
v 0.020523 -0.028178 -4.328546
v 0.020523 0.028178 -4.328546
v 0.187643 0.045451 -3.332526
v -0.098227 0.134868 1.405948
v -0.187643 0.045451 1.405948
v -0.271578 0.134868 1.436775
v -0.173940 0.134868 1.494308
v 0.098227 -0.134868 1.405948
v 0.187643 -0.045451 1.405948
v 0.271578 -0.134868 1.436775
v 0.173940 -0.134868 1.494308
v -0.187643 -0.045451 1.405948
v -0.098227 -0.134868 1.405948
v -0.173940 -0.134868 1.494308
v -0.271578 -0.134868 1.436775
v 0.187643 0.045451 1.405948
v 0.098227 0.134868 1.405948
v 0.173940 0.134868 1.494308
v 0.271578 0.134868 1.436775
vt 0.750000 0.500000
vt 0.815435 0.500000
vt 0.815435 0.677736
vt 0.750000 0.677736
vt 0.684565 0.500000
vt 0.684565 0.677736
vt 0.375000 1.000000
vt 0.625000 1.000000
vt 0.625000 1.000000
vt 0.375000 1.000000
vt 0.375000 0.875000
vt 0.625000 0.875000
vt 0.250000 0.741300
vt 0.375000 0.741300
vt 0.375000 0.750000
vt 0.250000 0.750000
vt 0.750000 0.741300
vt 0.875000 0.741300
vt 0.875000 0.750000
vt 0.750000 0.750000
vt 0.625000 0.741300
vt 0.625000 0.750000
vt 0.125000 0.741300
vt 0.125000 0.750000
vt 0.184565 0.500000
vt 0.250000 0.500000
vt 0.250000 0.677736
vt 0.184565 0.677736
vt 0.625000 0.677736
vt 0.625000 0.681050
vt 0.625000 0.690224
vt 0.625000 0.690224
vt 0.625000 0.677736
vt 0.625000 0.072264
vt 0.542126 0.072264
vt 0.457874 0.072264
vt 0.375000 0.072264
vt 0.375000 0.072264
vt 0.625000 0.072264
vt 0.375000 0.677736
vt 0.457874 0.677736
vt 0.542126 0.677736
vt 0.375000 0.677736
vt 0.750000 0.690224
vt 0.375000 0.008700
vt 0.625000 0.008700
vt 0.625000 0.059776
vt 0.375000 0.059776
vt 0.315435 0.500000
vt 0.315435 0.677736
vt 0.375000 0.375000
vt 0.625000 0.375000
vt 0.625000 0.440435
vt 0.542126 0.500000
vt 0.457874 0.500000
vt 0.375000 0.440435
vt 0.875000 0.690224
vt 0.875000 0.681050
vt 0.875000 0.677736
vt 0.875000 0.677736
vt 0.875000 0.690224
vt 0.542126 0.250000
vt 0.457874 0.250000
vt 0.125000 0.677736
vt 0.125000 0.681050
vt 0.125000 0.690224
vt 0.125000 0.690224
vt 0.125000 0.677736
vt 0.375000 0.690224
vt 0.375000 0.059776
vt 0.625000 0.059776
vt 0.375000 0.690224
vt 0.375000 0.681050
vt 0.250000 0.690224
vt 0.625000 0.741300
vt 0.375000 0.741300
vt 0.625000 0.750000
vt 0.375000 0.750000
vt 0.375000 0.000000
vt 0.625000 0.000000
vt 0.625000 0.008700
vt 0.375000 0.008700
vt 0.125000 0.750000
vt 0.125000 0.741300
vt 0.875000 0.741300
vt 0.875000 0.750000
vt 0.625000 0.072264
vt 0.625000 0.072264
vt 0.375000 0.677736
vt 0.125000 0.677736
vt 0.125000 0.678388
vt 0.625000 0.677736
vt 0.625000 0.250000
vt 0.125000 0.500000
vt 0.375000 0.309565
vt 0.625000 0.309565
vn -0.0191 0.9996 -0.0185
vn 0.0191 0.9996 -0.0185
vn 0.0000 0.0000 1.0000
vn 0.0000 -1.0000 0.0000
vn 0.0000 1.0000 0.0000
vn -0.0191 -0.9996 -0.0185
vn -0.3448 0.0000 -0.9387
vn 0.3448 0.0000 -0.9387
vn -1.0000 0.0000 0.0000
vn 0.0191 -0.9996 -0.0185
vn 0.9862 0.0000 -0.1655
vn 1.0000 0.0000 0.0000
vn 0.8580 0.0000 -0.5136
vn -0.8580 0.0000 -0.5136
vn -0.2451 0.0000 0.9695
vn 0.2451 0.0000 0.9695
vn 0.0000 0.0000 -1.0000
vn -0.1238 0.7070 -0.6963
vn 0.1238 -0.7070 -0.6963
vn -0.1238 -0.7070 -0.6963
vn 0.1238 0.7070 -0.6963
vn -0.3136 0.9495 -0.0120
vn 0.3136 -0.9495 -0.0120
vn -0.3136 -0.9495 -0.0120
vn 0.3136 0.9495 -0.0120
vn -0.9862 -0.0000 -0.1655
usemtl None
s off
f 6/1/1 42/2/1 47/3/1 15/4/1
f 45/5/2 6/1/2 15/4/2 60/6/2
f 1/7/3 2/8/3 33/9/3 32/10/3
f 7/11/3 8/12/3 2/8/3 1/7/3
f 28/13/4 30/14/4 3/15/4 7/16/4
f 27/17/5 29/18/5 2/19/5 8/20/5
f 26/21/5 27/17/5 8/20/5 4/22/5
f 25/23/4 28/13/4 7/16/4 1/24/4
f 3/15/3 4/22/3 8/12/3 7/11/3
f 39/25/6 5/26/6 16/27/6 56/28/6
f 62/29/5 61/30/5 12/31/5 20/32/5 19/33/5
f 49/34/7 48/35/7 55/36/7 58/37/7 17/38/7 23/39/7
f 53/40/8 52/41/8 59/42/8 62/29/8 19/33/8 24/43/8
f 61/30/5 60/6/5 15/4/5 13/44/5 12/31/5
f 25/45/9 29/46/9 10/47/9 9/48/9
f 5/26/10 44/49/10 51/50/10 16/27/10
f 5/51/11 6/52/11 45/53/11 46/54/11 43/55/11 44/56/11
f 43/55/12 46/54/12 59/42/12 52/41/12
f 10/57/5 50/58/5 49/59/5 23/60/5 22/61/5
f 55/36/9 48/35/9 41/62/9 40/63/9
f 58/64/4 57/65/4 9/66/4 18/67/4 17/68/4
f 24/43/13 19/33/13 20/32/13 21/69/13
f 18/70/14 22/71/14 23/39/14 17/38/14
f 11/72/4 54/73/4 53/40/4 24/43/4 21/69/4
f 15/4/5 47/3/5 50/58/5 10/57/5 13/44/5
f 12/31/15 11/72/15 21/69/15 20/32/15
f 16/27/4 51/50/4 54/73/4 11/72/4 14/74/4
f 57/65/4 56/28/4 16/27/4 14/74/4 9/66/4
f 9/48/16 10/47/16 22/71/16 18/70/16
f 30/14/17 26/21/17 34/75/17 38/76/17
f 9/66/4 14/74/4 28/13/4 25/23/4
f 12/31/5 13/44/5 27/17/5 26/21/5
f 13/44/5 10/57/5 29/18/5 27/17/5
f 14/74/4 11/72/4 30/14/4 28/13/4
f 11/72/12 12/31/12 26/21/12 30/14/12
f 38/76/12 34/75/12 35/77/12 36/78/12
f 32/79/9 33/80/9 37/81/9 31/82/9
f 3/15/4 30/14/4 38/76/4 36/78/4
f 26/21/5 4/22/5 35/77/5 34/75/5
f 29/46/17 25/45/17 31/82/17 37/81/17
f 25/23/4 1/24/4 32/83/4 31/84/4
f 2/19/5 29/18/5 37/85/5 33/86/5
f 4/22/3 3/15/3 36/78/3 35/77/3
f 47/87/18 48/35/18 49/34/18 50/88/18
f 51/50/19 52/89/19 53/40/19 54/73/19
f 55/90/20 56/28/20 57/65/20 58/91/20
f 59/42/21 60/92/21 61/30/21 62/29/21
f 47/87/22 42/93/22 41/62/22 48/35/22
f 51/50/23 44/49/23 43/55/23 52/41/23
f 39/25/24 56/28/24 55/90/24 40/94/24
f 45/5/25 60/6/25 59/42/25 46/54/25
f 39/95/26 40/63/26 41/62/26 42/96/26 6/52/26 5/51/26
